<svg width="18" height="15" viewBox="0 0 18 15" fill="none" xmlns="http://www.w3.org/2000/svg">
<path fill-rule="evenodd" clip-rule="evenodd" d="M9 14.5C13.897 14.5 18 12.192 18 9C18 5.808 13.897 3.5 9 3.5C4.103 3.5 0 5.808 0 9C0 12.192 4.103 14.5 9 14.5ZM9 5.5C12.94 5.5 16 7.222 16 9C16 10.778 12.94 12.5 9 12.5C5.06 12.5 2 10.778 2 9C2 7.222 5.06 5.5 9 5.5Z" fill="#A89CEE"/>
<path d="M8 1.5C8 1.23478 8.10536 0.98043 8.29289 0.792893C8.48043 0.605357 8.73478 0.5 9 0.5C9.26522 0.5 9.51957 0.605357 9.70711 0.792893C9.89464 0.98043 10 1.23478 10 1.5V4.5C10 4.76522 9.89464 5.01957 9.70711 5.20711C9.51957 5.39464 9.26522 5.5 9 5.5C8.73478 5.5 8.48043 5.39464 8.29289 5.20711C8.10536 5.01957 8 4.76522 8 4.5V1.5Z" fill="#A89CEE"/>
<path d="M12.0199 1.80395C12.0795 1.55163 12.2347 1.3323 12.4529 1.19222C12.671 1.05215 12.9351 1.00227 13.1893 1.05311C13.4435 1.10396 13.668 1.25155 13.8155 1.46476C13.963 1.67797 14.022 1.94013 13.9799 2.19595L13.4799 4.69595C13.4581 4.82839 13.4099 4.95509 13.3381 5.0685C13.2664 5.18192 13.1725 5.27972 13.0621 5.35608C12.9517 5.43244 12.8271 5.4858 12.6957 5.51298C12.5642 5.54016 12.4287 5.5406 12.297 5.51428C12.1654 5.48795 12.0405 5.43541 11.9296 5.35976C11.8187 5.28412 11.7242 5.18694 11.6517 5.074C11.5792 4.96105 11.5301 4.83467 11.5075 4.70238C11.4849 4.57008 11.4891 4.43458 11.5199 4.30395L12.0199 1.80395V1.80395Z" fill="#A89CEE"/>
<path d="M5.98009 1.80395C5.92053 1.55163 5.7653 1.3323 5.54714 1.19222C5.32898 1.05215 5.06495 1.00227 4.81072 1.05311C4.5565 1.10396 4.33196 1.25155 4.18446 1.46476C4.03696 1.67797 3.97802 1.94013 4.02009 2.19595L4.52009 4.69595C4.57965 4.94828 4.73488 5.16761 4.95304 5.30768C5.1712 5.44776 5.43524 5.49764 5.68946 5.44679C5.94368 5.39595 6.16822 5.24836 6.31573 5.03515C6.46323 4.82194 6.52216 4.55978 6.48009 4.30395L5.98009 1.80395V1.80395Z" fill="#A89CEE"/>
<path d="M1.85849 2.986C1.72203 2.75858 1.50083 2.59467 1.24353 2.53035C0.986226 2.46602 0.713911 2.50655 0.486488 2.643C0.259065 2.77945 0.0951623 3.00066 0.0308373 3.25796C-0.0334877 3.51526 0.00703394 3.78758 0.143488 4.015L1.64349 6.515C1.78007 6.74242 2.00141 6.90627 2.2588 6.9705C2.5162 7.03473 2.78856 6.99409 3.01599 6.8575C3.24341 6.72091 3.40726 6.49958 3.47149 6.24218C3.53572 5.98479 3.49507 5.71242 3.35849 5.485L1.85849 2.985V2.986Z" fill="#A89CEE"/>
<path d="M16.1417 2.98594C16.2782 2.75838 16.4994 2.59435 16.7568 2.52994C17.0142 2.46552 17.2867 2.50599 17.5142 2.64244C17.7418 2.77889 17.9058 3.00016 17.9702 3.25755C18.0346 3.51494 17.9942 3.78738 17.8577 4.01494L16.3577 6.51494C16.2211 6.7425 15.9997 6.90647 15.7423 6.9708C15.4848 7.03512 15.2123 6.99453 14.9847 6.85794C14.7572 6.72135 14.5932 6.49997 14.5289 6.24248C14.4645 5.98499 14.5051 5.7125 14.6417 5.48494L16.1417 2.98494V2.98594Z" fill="#A89CEE"/>
<path fill-rule="evenodd" clip-rule="evenodd" d="M9 12C9.92826 12 10.8185 11.6313 11.4749 10.9749C12.1313 10.3185 12.5 9.42826 12.5 8.5C12.5 7.57174 12.1313 6.6815 11.4749 6.02513C10.8185 5.36875 9.92826 5 9 5C8.07174 5 7.1815 5.36875 6.52513 6.02513C5.86875 6.6815 5.5 7.57174 5.5 8.5C5.5 9.42826 5.86875 10.3185 6.52513 10.9749C7.1815 11.6313 8.07174 12 9 12V12ZM9 7C9.39782 7 9.77936 7.15804 10.0607 7.43934C10.342 7.72064 10.5 8.10218 10.5 8.5C10.5 8.89782 10.342 9.27936 10.0607 9.56066C9.77936 9.84196 9.39782 10 9 10C8.60218 10 8.22064 9.84196 7.93934 9.56066C7.65804 9.27936 7.5 8.89782 7.5 8.5C7.5 8.10218 7.65804 7.72064 7.93934 7.43934C8.22064 7.15804 8.60218 7 9 7Z" fill="#A89CEE"/>
</svg>
