<svg width="34" height="34" viewBox="0 0 34 34" fill="none" xmlns="http://www.w3.org/2000/svg">
<circle cx="17" cy="17" r="17" fill="#242F39"/>
<circle cx="17" cy="17" r="15" stroke="#26E030" stroke-width="2"/>
<path d="M13.0004 8.5C13.0004 6.9 15.3337 3.83333 16.5004 2.5H19.5002C21.0002 2.5 26.0002 5 26.0002 6C26.0002 7 17.5 17 14 18C11.85 18.6143 10.5001 19.5 7.00065 18.5C3.63535 17.5383 4.99656 12.3435 6.00065 10C7.50028 6.5 10.5005 4.83333 12.5004 3.5C11.8338 4.16667 10.2006 5.9 9.00022 7.5C7.49978 9.5 7.00065 12.5 7.00065 14.5C7.00065 16.5 9.00022 16.5 9.00022 16C9.00022 15.5 8.50022 12.5 9.00022 11C9.50018 9.50012 9.50018 10.8817 9.50018 11.9997V12C9.50018 13.5 11.0004 16.5 12.5004 16.5C14.0004 16.5 13.0004 10.5 13.0004 8.5Z" fill="#26E030"/>
<path d="M26.8723 14.2603C28.2152 13.1923 28.8468 10.3784 29 9C29.5 9 30.5 9.3 30.5 10.5C30.5 11.5965 28.2736 13.3331 26.8723 14.2603C26.7538 14.3545 26.6297 14.4351 26.5 14.5C26.615 14.4281 26.74 14.3478 26.8723 14.2603Z" fill="#26E030"/>
<path d="M23 20.5C27.4 18.5 29.8333 15 30.5 13.5L32 15.5C32 15.8333 31.7 16.9 30.5 18.5C29 20.5 20.5 23.5 18 24C16 24.4 13.5003 24.5 12.5004 24.5C12.3336 24.5 12.4 24.4 14 24C15.9999 23.5 17.5 23 23 20.5Z" fill="#26E030"/>
<path d="M21.5 27C24.3 26.6 28.3333 24.1667 30 23V25.5C29.5 25.6667 28 26.2 26.0002 27C24.0003 27.8 20.1668 27.6667 18.5 27.5C18.3333 27.5 18.7 27.4 21.5 27Z" fill="#26E030"/>
</svg>
