<svg width="18" height="17" viewBox="0 0 18 17" fill="none" xmlns="http://www.w3.org/2000/svg">
<path d="M0.642857 4H17.3571C17.7122 4 18 3.70763 18 3.34694V0.653061C18 0.292367 17.7122 0 17.3571 0H0.642857C0.287799 0 0 0.292367 0 0.653061V3.34694C0 3.70763 0.287799 4 0.642857 4ZM0.642857 10.1531H17.3571C17.7122 10.1531 18 9.86069 18 9.5V7.18367C18 6.82298 17.7122 6.53061 17.3571 6.53061H0.642857C0.287799 6.53061 0 6.82298 0 7.18367V9.5C0 9.86069 0.287799 10.1531 0.642857 10.1531ZM0.642857 17H17.3571C17.7122 17 18 16.7076 18 16.3469V13.7143C18 13.3536 17.7122 13.0612 17.3571 13.0612H0.642857C0.287799 13.0612 0 13.3536 0 13.7143V16.3469C0 16.7076 0.287799 17 0.642857 17Z" fill="white"/>
</svg>
