<svg width="34" height="34" viewBox="0 0 34 34" fill="none" xmlns="http://www.w3.org/2000/svg">
<circle cx="17" cy="17" r="17" fill="#242F39"/>
<circle cx="17" cy="17" r="15" stroke="#03C6DC" stroke-width="2"/>
<path d="M12.0002 22L7.50017 27.5L10.5002 30L14.0002 25.5L14.5002 21.5L12.0002 22Z" fill="#03C6DC"/>
<path fill-rule="evenodd" clip-rule="evenodd" d="M14 16L9 20L17 18V27.5L20 19L25 23.5L23.5 17.5L30.5 19L25 14.5L28.5 11.5L24 10.5L25 5.5L20.5 9L18.5 4.5L17 9.5L10 5L14.5 12L7.5 13.2838L14 16ZM15 10L17.5 11L18.5 8.5L20.5 11L23 9L22.5 11.5L26 12L22.5 14.5L25 16.5L22 16L22.5 18.5L19.5 16.5L18.5 19L18 16.5L15 17L16 15.5L12.5 14L16 13L15 10Z" fill="#03C6DC"/>
</svg>
