<svg width="51" height="51" viewBox="0 0 51 51" fill="none" xmlns="http://www.w3.org/2000/svg">
<path d="M35.1668 25.5L49.6656 11.0012C51.4448 9.22202 51.4448 6.33733 49.6656 4.55668L46.4433 1.3344C44.6641 -0.444801 41.7794 -0.444801 39.9988 1.3344L25.5 15.8332L11.0012 1.3344C9.22202 -0.444801 6.33733 -0.444801 4.55668 1.3344L1.3344 4.55668C-0.444801 6.33588 -0.444801 9.22057 1.3344 11.0012L15.8332 25.5L1.3344 39.9988C-0.444801 41.778 -0.444801 44.6627 1.3344 46.4433L4.55668 49.6656C6.33588 51.4448 9.22202 51.4448 11.0012 49.6656L25.5 35.1668L39.9988 49.6656C41.778 51.4448 44.6641 51.4448 46.4433 49.6656L49.6656 46.4433C51.4448 44.6641 51.4448 41.7794 49.6656 39.9988L35.1668 25.5Z" fill="white"/>
</svg>
