<svg width="68" height="68" viewBox="0 0 68 68" fill="none" xmlns="http://www.w3.org/2000/svg">
<path d="M32.5 33C32.5 34.3807 33.6193 35.5 35 35.5L57.5 35.5C58.8807 35.5 60 34.3807 60 33C60 31.6193 58.8807 30.5 57.5 30.5H37.5V10.5C37.5 9.11929 36.3807 8 35 8C33.6193 8 32.5 9.11929 32.5 10.5L32.5 33ZM64.2322 0.232233L33.2322 31.2322L36.7678 34.7678L67.7678 3.76777L64.2322 0.232233Z" fill="#B970CA"/>
<path d="M35.5 35C35.5 33.6193 34.3807 32.5 33 32.5L10.5 32.5C9.11928 32.5 8 33.6193 8 35C8 36.3807 9.11928 37.5 10.5 37.5L30.5 37.5L30.5 57.5C30.5 58.8807 31.6193 60 33 60C34.3807 60 35.5 58.8807 35.5 57.5L35.5 35ZM3.76777 67.7678L34.7678 36.7678L31.2322 33.2322L0.232233 64.2322L3.76777 67.7678Z" fill="#B970CA"/>
</svg>
