<svg width="34" height="34" viewBox="0 0 34 34" fill="none" xmlns="http://www.w3.org/2000/svg">
<circle cx="17" cy="17" r="17" fill="#242F39"/>
<path d="M13.4997 8C11.8997 7.6 10.1664 5.83333 9.49973 5C8.83307 5.16667 7.29973 5.6 6.49973 6C5.49973 6.5 1.49973 14.5 2.99973 15C4.49973 15.5 7.5 17.5 7.5 19C7.5 20.5 10.9997 24 11.9997 24.5C12.7997 24.9 13.3331 24 13.4997 23.5L18.4997 16C19.4997 14.5 18.4997 15 16.4997 15C14.8997 15 13.9997 13 14.5 12.5C14.7342 12.2659 15.2037 14.0019 16.4997 14C17.9724 13.9979 20.2872 13.2872 20.5 13.5C21 14 18.5 18 19 18.5C19.5 19 20.5 18.5 21.5 17.5C22.5 16.5 24.5003 14 24.5 12C24.4997 10 18.5 8.5 17.5 8.5C16.5 8.5 15.4997 8.5 13.4997 8Z" fill="#CE390B"/>
<path d="M20 20.5C19.2 19.7 18.4997 19 17.5 20C16.5003 21 17.9998 22 18.4997 22.5L21 25C22 26 22.5 25.5 23 25C23.4 24.6 23.1667 23.8333 23 23.5L20 20.5Z" fill="#CE390B"/>
<path d="M17.5003 24C16.7003 23.2 16 22.5 15.0003 23.5C14.0005 24.5 15.5001 25.5 16 26C16.5001 26.5 16.4722 26.472 17.2722 27.272C18.2722 28.272 18.7722 27.772 19.2722 27.272C19.6722 26.872 19.4389 26.1053 19.2722 25.772L17.5003 24Z" fill="#CE390B"/>
<path d="M25 19.5C24.2 18.7 23.4997 18 22.5 19C21.5003 20 22.9998 21 23.4997 21.5C23.9998 22 23.7 21.7 24.5 22.5C25.5 23.5 26 23 26.5 22.5C26.9 22.1 26.6667 21.3333 26.5 21L25 19.5Z" fill="#CE390B"/>
<path d="M27 16.5C26.2 15.7 25.4997 15 24.5 16C23.5003 17 25.0001 18 25.5 18.5C26.5 19.5 27 19 27.5 18.5C27.9 18.1 27.6667 17.3333 27.5 17L27 16.5Z" fill="#CE390B"/>
<circle cx="17" cy="17" r="15" stroke="#CE390B" stroke-width="2"/>
</svg>
