<svg width="35" height="35" viewBox="0 0 35 35" fill="none" xmlns="http://www.w3.org/2000/svg">
<path fill-rule="evenodd" clip-rule="evenodd" d="M17.1123 22.7419L25.3411 34.0024C25.7215 34.523 26.4221 34.6929 26.9988 34.4046C27.5766 34.1157 27.8608 33.4515 27.6708 32.8342L24.2792 21.8115C24.1025 21.2372 24.1934 20.6139 24.5267 20.114L26.4574 17.2179C26.7998 16.7044 26.8858 16.0616 26.6907 15.4761L26.1026 13.7119C26.0347 13.508 26 13.2944 26 13.0795V12.1055C26 11.6514 26.1576 11.213 26.3895 10.8226C26.9146 9.93837 27.7069 8.17086 27 6.40375C26 3.90402 24 1.40402 22.5 0.903751C21 0.403481 16 -1.09598 12 1.40402C8 3.90402 7 6.40429 7 10.404C7 13.512 9.41528 16.6204 10.4922 17.8519C10.8111 18.2166 11.2664 18.4218 11.7498 18.454L15.9379 18.7332C17.078 18.8092 17.7095 20.0898 17.0756 21.0406C16.7299 21.5592 16.7445 22.2386 17.1123 22.7419ZM11.25 6.40375C10.5596 6.40375 10 6.9634 10 7.65375V10.5756C10 11.106 10.2107 11.6147 10.5858 11.9898L11.4142 12.8182C11.7893 13.1933 12.298 13.404 12.8284 13.404H17.6715C18.202 13.404 18.7107 13.1933 19.0858 12.8182L21.5858 10.318C21.851 10.0528 22 9.6931 22 9.31804V9.20658C22 8.48708 21.4167 7.90381 20.6972 7.90381V7.90381C20.2616 7.90381 19.8549 8.1215 19.6132 8.48393L18.5937 10.0132C18.2228 10.5696 17.5983 10.9038 16.9296 10.9038H14.5C13.3954 10.9038 12.5 10.0084 12.5 8.90381V7.65375C12.5 6.96339 11.9404 6.40375 11.25 6.40375V6.40375ZM18.7749 17.0761C18.1459 16.7919 17.9777 15.9764 18.4429 15.4664L18.5 15.4038L24.4424 9.93383C24.7452 9.65502 25.207 10.0099 25.0156 10.3743V10.3743C25.0052 10.3941 24.9931 10.4129 24.9793 10.4304L19.9916 16.7782C19.7029 17.1456 19.2007 17.2686 18.7749 17.0761V17.0761Z" fill="#FFDA6E"/>
</svg>
